<svg xmlns="http://www.w3.org/2000/svg" viewBox="0 0 512 512">
<defs>
  <linearGradient id="bg" x1="0" y1="0" x2="1" y2="1">
    <stop offset="0%" stop-color="#7a2f1f"/>
    <stop offset="100%" stop-color="#d96b42"/>
  </linearGradient>
  <linearGradient id="page" x1="0" y1="0" x2="0" y2="1">
    <stop offset="0%" stop-color="#fff8ef"/>
    <stop offset="100%" stop-color="#f0dfc7"/>
  </linearGradient>
</defs>
<rect x="24" y="24" width="464" height="464" rx="108" fill="url(#bg)"/>
<rect x="108" y="98" width="296" height="316" rx="26" fill="url(#page)" opacity="0.98"/>
<path d="M152 162h208" stroke="#7a2f1f" stroke-width="20" stroke-linecap="round"/>
<path d="M152 212h162" stroke="#b55934" stroke-width="16" stroke-linecap="round"/>
<path d="M152 250h184" stroke="#b55934" stroke-width="16" stroke-linecap="round"/>
<path d="M152 288h150" stroke="#b55934" stroke-width="16" stroke-linecap="round"/>
<circle cx="348" cy="328" r="54" fill="#f1b36f"/>
<path d="M348 299c14 0 25 10 25 23 0 27-25 43-25 43s-25-16-25-43c0-13 11-23 25-23z" fill="#7a2f1f"/>
<path d="M215 112c-16 26-21 55-13 78" stroke="#f1b36f" stroke-width="14" stroke-linecap="round" opacity="0.95"/>
</svg>
